# Tiled2Unity generated file. Do not modify by hand.
# Wavefront file for 'tutorialLevel_mesh_0001.obj'

# Vertices (Count = 740)
v -928 -336 0
v -944 -336 0
v -944 -320 0
v -928 -320 0
v -944 -336 0
v -960 -336 0
v -960 -320 0
v -944 -320 0
v -960 -336 0
v -976 -336 0
v -976 -320 0
v -960 -320 0
v -976 -336 0
v -992 -336 0
v -992 -320 0
v -976 -320 0
v -992 -336 0
v -1008 -336 0
v -1008 -320 0
v -992 -320 0
v -1008 -336 0
v -1024 -336 0
v -1024 -320 0
v -1008 -320 0
v -1024 -336 0
v -1040 -336 0
v -1040 -320 0
v -1024 -320 0
v -1040 -336 0
v -1056 -336 0
v -1056 -320 0
v -1040 -320 0
v -1056 -336 0
v -1072 -336 0
v -1072 -320 0
v -1056 -320 0
v -928 -352 0
v -944 -352 0
v -944 -336 0
v -928 -336 0
v -944 -352 0
v -960 -352 0
v -960 -336 0
v -944 -336 0
v -960 -352 0
v -976 -352 0
v -976 -336 0
v -960 -336 0
v -976 -352 0
v -992 -352 0
v -992 -336 0
v -976 -336 0
v -992 -352 0
v -1008 -352 0
v -1008 -336 0
v -992 -336 0
v -1008 -352 0
v -1024 -352 0
v -1024 -336 0
v -1008 -336 0
v -1024 -352 0
v -1040 -352 0
v -1040 -336 0
v -1024 -336 0
v -1040 -352 0
v -1056 -352 0
v -1056 -336 0
v -1040 -336 0
v -1056 -352 0
v -1072 -352 0
v -1072 -336 0
v -1056 -336 0
v -928 -368 0
v -944 -368 0
v -944 -352 0
v -928 -352 0
v -944 -368 0
v -960 -368 0
v -960 -352 0
v -944 -352 0
v -960 -368 0
v -976 -368 0
v -976 -352 0
v -960 -352 0
v -976 -368 0
v -992 -368 0
v -992 -352 0
v -976 -352 0
v -992 -368 0
v -1008 -368 0
v -1008 -352 0
v -992 -352 0
v -1008 -368 0
v -1024 -368 0
v -1024 -352 0
v -1008 -352 0
v -1024 -368 0
v -1040 -368 0
v -1040 -352 0
v -1024 -352 0
v -1040 -368 0
v -1056 -368 0
v -1056 -352 0
v -1040 -352 0
v -1056 -368 0
v -1072 -368 0
v -1072 -352 0
v -1056 -352 0
v -928 -384 0
v -944 -384 0
v -944 -368 0
v -928 -368 0
v -944 -384 0
v -960 -384 0
v -960 -368 0
v -944 -368 0
v -960 -384 0
v -976 -384 0
v -976 -368 0
v -960 -368 0
v -976 -384 0
v -992 -384 0
v -992 -368 0
v -976 -368 0
v -992 -384 0
v -1008 -384 0
v -1008 -368 0
v -992 -368 0
v -1008 -384 0
v -1024 -384 0
v -1024 -368 0
v -1008 -368 0
v -1024 -384 0
v -1040 -384 0
v -1040 -368 0
v -1024 -368 0
v -1040 -384 0
v -1056 -384 0
v -1056 -368 0
v -1040 -368 0
v -1056 -384 0
v -1072 -384 0
v -1072 -368 0
v -1056 -368 0
v -928 -400 0
v -944 -400 0
v -944 -384 0
v -928 -384 0
v -944 -400 0
v -960 -400 0
v -960 -384 0
v -944 -384 0
v -960 -400 0
v -976 -400 0
v -976 -384 0
v -960 -384 0
v -976 -400 0
v -992 -400 0
v -992 -384 0
v -976 -384 0
v -992 -400 0
v -1008 -400 0
v -1008 -384 0
v -992 -384 0
v -1008 -400 0
v -1024 -400 0
v -1024 -384 0
v -1008 -384 0
v -1024 -400 0
v -1040 -400 0
v -1040 -384 0
v -1024 -384 0
v -1040 -400 0
v -1056 -400 0
v -1056 -384 0
v -1040 -384 0
v -1056 -400 0
v -1072 -400 0
v -1072 -384 0
v -1056 -384 0
v -928 -416 0
v -944 -416 0
v -944 -400 0
v -928 -400 0
v -944 -416 0
v -960 -416 0
v -960 -400 0
v -944 -400 0
v -960 -416 0
v -976 -416 0
v -976 -400 0
v -960 -400 0
v -976 -416 0
v -992 -416 0
v -992 -400 0
v -976 -400 0
v -992 -416 0
v -1008 -416 0
v -1008 -400 0
v -992 -400 0
v -1008 -416 0
v -1024 -416 0
v -1024 -400 0
v -1008 -400 0
v -1024 -416 0
v -1040 -416 0
v -1040 -400 0
v -1024 -400 0
v -1040 -416 0
v -1056 -416 0
v -1056 -400 0
v -1040 -400 0
v -1056 -416 0
v -1072 -416 0
v -1072 -400 0
v -1056 -400 0
v -928 -432 0
v -944 -432 0
v -944 -416 0
v -928 -416 0
v -944 -432 0
v -960 -432 0
v -960 -416 0
v -944 -416 0
v -960 -432 0
v -976 -432 0
v -976 -416 0
v -960 -416 0
v -976 -432 0
v -992 -432 0
v -992 -416 0
v -976 -416 0
v -992 -432 0
v -1008 -432 0
v -1008 -416 0
v -992 -416 0
v -1008 -432 0
v -1024 -432 0
v -1024 -416 0
v -1008 -416 0
v -1024 -432 0
v -1040 -432 0
v -1040 -416 0
v -1024 -416 0
v -1040 -432 0
v -1056 -432 0
v -1056 -416 0
v -1040 -416 0
v -1056 -432 0
v -1072 -432 0
v -1072 -416 0
v -1056 -416 0
v -912 -448 0
v -928 -448 0
v -928 -432 0
v -912 -432 0
v -928 -448 0
v -944 -448 0
v -944 -432 0
v -928 -432 0
v -944 -448 0
v -960 -448 0
v -960 -432 0
v -944 -432 0
v -960 -448 0
v -976 -448 0
v -976 -432 0
v -960 -432 0
v -976 -448 0
v -992 -448 0
v -992 -432 0
v -976 -432 0
v -992 -448 0
v -1008 -448 0
v -1008 -432 0
v -992 -432 0
v -1008 -448 0
v -1024 -448 0
v -1024 -432 0
v -1008 -432 0
v -1024 -448 0
v -1040 -448 0
v -1040 -432 0
v -1024 -432 0
v -1040 -448 0
v -1056 -448 0
v -1056 -432 0
v -1040 -432 0
v -1056 -448 0
v -1072 -448 0
v -1072 -432 0
v -1056 -432 0
v -912 -464 0
v -928 -464 0
v -928 -448 0
v -912 -448 0
v -928 -464 0
v -944 -464 0
v -944 -448 0
v -928 -448 0
v -944 -464 0
v -960 -464 0
v -960 -448 0
v -944 -448 0
v -960 -464 0
v -976 -464 0
v -976 -448 0
v -960 -448 0
v -976 -464 0
v -992 -464 0
v -992 -448 0
v -976 -448 0
v -992 -464 0
v -1008 -464 0
v -1008 -448 0
v -992 -448 0
v -1008 -464 0
v -1024 -464 0
v -1024 -448 0
v -1008 -448 0
v -1024 -464 0
v -1040 -464 0
v -1040 -448 0
v -1024 -448 0
v -1040 -464 0
v -1056 -464 0
v -1056 -448 0
v -1040 -448 0
v -912 -480 0
v -928 -480 0
v -928 -464 0
v -912 -464 0
v -928 -480 0
v -944 -480 0
v -944 -464 0
v -928 -464 0
v -944 -480 0
v -960 -480 0
v -960 -464 0
v -944 -464 0
v -960 -480 0
v -976 -480 0
v -976 -464 0
v -960 -464 0
v -976 -480 0
v -992 -480 0
v -992 -464 0
v -976 -464 0
v -992 -480 0
v -1008 -480 0
v -1008 -464 0
v -992 -464 0
v -1008 -480 0
v -1024 -480 0
v -1024 -464 0
v -1008 -464 0
v -1024 -480 0
v -1040 -480 0
v -1040 -464 0
v -1024 -464 0
v -1040 -480 0
v -1056 -480 0
v -1056 -464 0
v -1040 -464 0
v -912 -496 0
v -928 -496 0
v -928 -480 0
v -912 -480 0
v -928 -496 0
v -944 -496 0
v -944 -480 0
v -928 -480 0
v -944 -496 0
v -960 -496 0
v -960 -480 0
v -944 -480 0
v -960 -496 0
v -976 -496 0
v -976 -480 0
v -960 -480 0
v -976 -496 0
v -992 -496 0
v -992 -480 0
v -976 -480 0
v -992 -496 0
v -1008 -496 0
v -1008 -480 0
v -992 -480 0
v -1008 -496 0
v -1024 -496 0
v -1024 -480 0
v -1008 -480 0
v -1024 -496 0
v -1040 -496 0
v -1040 -480 0
v -1024 -480 0
v -1040 -496 0
v -1056 -496 0
v -1056 -480 0
v -1040 -480 0
v -912 -512 0
v -928 -512 0
v -928 -496 0
v -912 -496 0
v -928 -512 0
v -944 -512 0
v -944 -496 0
v -928 -496 0
v -944 -512 0
v -960 -512 0
v -960 -496 0
v -944 -496 0
v -960 -512 0
v -976 -512 0
v -976 -496 0
v -960 -496 0
v -976 -512 0
v -992 -512 0
v -992 -496 0
v -976 -496 0
v -992 -512 0
v -1008 -512 0
v -1008 -496 0
v -992 -496 0
v -1008 -512 0
v -1024 -512 0
v -1024 -496 0
v -1008 -496 0
v -1024 -512 0
v -1040 -512 0
v -1040 -496 0
v -1024 -496 0
v -1040 -512 0
v -1056 -512 0
v -1056 -496 0
v -1040 -496 0
v -912 -528 0
v -928 -528 0
v -928 -512 0
v -912 -512 0
v -928 -528 0
v -944 -528 0
v -944 -512 0
v -928 -512 0
v -944 -528 0
v -960 -528 0
v -960 -512 0
v -944 -512 0
v -960 -528 0
v -976 -528 0
v -976 -512 0
v -960 -512 0
v -976 -528 0
v -992 -528 0
v -992 -512 0
v -976 -512 0
v -992 -528 0
v -1008 -528 0
v -1008 -512 0
v -992 -512 0
v -1008 -528 0
v -1024 -528 0
v -1024 -512 0
v -1008 -512 0
v -1024 -528 0
v -1040 -528 0
v -1040 -512 0
v -1024 -512 0
v -1040 -528 0
v -1056 -528 0
v -1056 -512 0
v -1040 -512 0
v -912 -544 0
v -928 -544 0
v -928 -528 0
v -912 -528 0
v -928 -544 0
v -944 -544 0
v -944 -528 0
v -928 -528 0
v -944 -544 0
v -960 -544 0
v -960 -528 0
v -944 -528 0
v -960 -544 0
v -976 -544 0
v -976 -528 0
v -960 -528 0
v -976 -544 0
v -992 -544 0
v -992 -528 0
v -976 -528 0
v -992 -544 0
v -1008 -544 0
v -1008 -528 0
v -992 -528 0
v -1008 -544 0
v -1024 -544 0
v -1024 -528 0
v -1008 -528 0
v -1024 -544 0
v -1040 -544 0
v -1040 -528 0
v -1024 -528 0
v -1040 -544 0
v -1056 -544 0
v -1056 -528 0
v -1040 -528 0
v -160 -576 0
v -176 -576 0
v -176 -560 0
v -160 -560 0
v -176 -576 0
v -192 -576 0
v -192 -560 0
v -176 -560 0
v -192 -576 0
v -208 -576 0
v -208 -560 0
v -192 -560 0
v -208 -576 0
v -224 -576 0
v -224 -560 0
v -208 -560 0
v -224 -576 0
v -240 -576 0
v -240 -560 0
v -224 -560 0
v -240 -576 0
v -256 -576 0
v -256 -560 0
v -240 -560 0
v -256 -576 0
v -272 -576 0
v -272 -560 0
v -256 -560 0
v -160 -592 0
v -176 -592 0
v -176 -576 0
v -160 -576 0
v -176 -592 0
v -192 -592 0
v -192 -576 0
v -176 -576 0
v -192 -592 0
v -208 -592 0
v -208 -576 0
v -192 -576 0
v -208 -592 0
v -224 -592 0
v -224 -576 0
v -208 -576 0
v -224 -592 0
v -240 -592 0
v -240 -576 0
v -224 -576 0
v -240 -592 0
v -256 -592 0
v -256 -576 0
v -240 -576 0
v -256 -592 0
v -272 -592 0
v -272 -576 0
v -256 -576 0
v -160 -608 0
v -176 -608 0
v -176 -592 0
v -160 -592 0
v -176 -608 0
v -192 -608 0
v -192 -592 0
v -176 -592 0
v -192 -608 0
v -208 -608 0
v -208 -592 0
v -192 -592 0
v -208 -608 0
v -224 -608 0
v -224 -592 0
v -208 -592 0
v -224 -608 0
v -240 -608 0
v -240 -592 0
v -224 -592 0
v -240 -608 0
v -256 -608 0
v -256 -592 0
v -240 -592 0
v -256 -608 0
v -272 -608 0
v -272 -592 0
v -256 -592 0
v -160 -624 0
v -176 -624 0
v -176 -608 0
v -160 -608 0
v -176 -624 0
v -192 -624 0
v -192 -608 0
v -176 -608 0
v -192 -624 0
v -208 -624 0
v -208 -608 0
v -192 -608 0
v -208 -624 0
v -224 -624 0
v -224 -608 0
v -208 -608 0
v -224 -624 0
v -240 -624 0
v -240 -608 0
v -224 -608 0
v -240 -624 0
v -256 -624 0
v -256 -608 0
v -240 -608 0
v -256 -624 0
v -272 -624 0
v -272 -608 0
v -256 -608 0
v -544 -624 0
v -560 -624 0
v -560 -608 0
v -544 -608 0
v -560 -624 0
v -576 -624 0
v -576 -608 0
v -560 -608 0
v -576 -624 0
v -592 -624 0
v -592 -608 0
v -576 -608 0
v -592 -624 0
v -608 -624 0
v -608 -608 0
v -592 -608 0
v -160 -640 0
v -176 -640 0
v -176 -624 0
v -160 -624 0
v -176 -640 0
v -192 -640 0
v -192 -624 0
v -176 -624 0
v -192 -640 0
v -208 -640 0
v -208 -624 0
v -192 -624 0
v -208 -640 0
v -224 -640 0
v -224 -624 0
v -208 -624 0
v -224 -640 0
v -240 -640 0
v -240 -624 0
v -224 -624 0
v -240 -640 0
v -256 -640 0
v -256 -624 0
v -240 -624 0
v -256 -640 0
v -272 -640 0
v -272 -624 0
v -256 -624 0
v -544 -640 0
v -560 -640 0
v -560 -624 0
v -544 -624 0
v -560 -640 0
v -576 -640 0
v -576 -624 0
v -560 -624 0
v -576 -640 0
v -592 -640 0
v -592 -624 0
v -576 -624 0
v -592 -640 0
v -608 -640 0
v -608 -624 0
v -592 -624 0
v -160 -656 0
v -176 -656 0
v -176 -640 0
v -160 -640 0
v -176 -656 0
v -192 -656 0
v -192 -640 0
v -176 -640 0
v -192 -656 0
v -208 -656 0
v -208 -640 0
v -192 -640 0
v -208 -656 0
v -224 -656 0
v -224 -640 0
v -208 -640 0
v -224 -656 0
v -240 -656 0
v -240 -640 0
v -224 -640 0
v -240 -656 0
v -256 -656 0
v -256 -640 0
v -240 -640 0
v -256 -656 0
v -272 -656 0
v -272 -640 0
v -256 -640 0
v -544 -656 0
v -560 -656 0
v -560 -640 0
v -544 -640 0
v -560 -656 0
v -576 -656 0
v -576 -640 0
v -560 -640 0
v -576 -656 0
v -592 -656 0
v -592 -640 0
v -576 -640 0
v -592 -656 0
v -608 -656 0
v -608 -640 0
v -592 -640 0
v -544 -672 0
v -560 -672 0
v -560 -656 0
v -544 -656 0
v -560 -672 0
v -576 -672 0
v -576 -656 0
v -560 -656 0
v -576 -672 0
v -592 -672 0
v -592 -656 0
v -576 -656 0
v -592 -672 0
v -608 -672 0
v -608 -656 0
v -592 -656 0

# Texture cooridinates (Count = 262)
vt 0.1896552 0.85
vt 0.2068966 0.85
vt 0.2068966 0.9
vt 0.1896552 0.9
vt 0.2241379 0.85
vt 0.2241379 0.9
vt 0.2413793 0.85
vt 0.2413793 0.9
vt 0.2586207 0.85
vt 0.2586207 0.9
vt 0.2758621 0.85
vt 0.2758621 0.9
vt 0.2931035 0.85
vt 0.2931035 0.9
vt 0.3103448 0.85
vt 0.3103448 0.9
vt 0.3275862 0.85
vt 0.3275862 0.9
vt 0.3448276 0.85
vt 0.3448276 0.9
vt 0.1896552 0.8
vt 0.2068966 0.8
vt 0.2241379 0.8
vt 0.2413793 0.8
vt 0.2586207 0.8
vt 0.2758621 0.8
vt 0.2931035 0.8
vt 0.3103448 0.8
vt 0.3275862 0.8
vt 0.3448276 0.8
vt 0.1896552 0.75
vt 0.2068966 0.75
vt 0.2241379 0.75
vt 0.2413793 0.75
vt 0.2586207 0.75
vt 0.2758621 0.75
vt 0.2931035 0.75
vt 0.3103448 0.75
vt 0.3275862 0.75
vt 0.3448276 0.75
vt 0.1896552 0.7
vt 0.2068966 0.7
vt 0.2241379 0.7
vt 0.2413793 0.7
vt 0.2586207 0.7
vt 0.2758621 0.7
vt 0.2931035 0.7
vt 0.3103448 0.7
vt 0.3275862 0.7
vt 0.3448276 0.7
vt 0.1896552 0.65
vt 0.2068966 0.65
vt 0.2241379 0.65
vt 0.2413793 0.65
vt 0.2586207 0.65
vt 0.2758621 0.65
vt 0.2931035 0.65
vt 0.3103448 0.65
vt 0.3275862 0.65
vt 0.3448276 0.65
vt 0.1896552 0.6
vt 0.2068966 0.6
vt 0.2241379 0.6
vt 0.2413793 0.6
vt 0.2586207 0.6
vt 0.2758621 0.6
vt 0.2931035 0.6
vt 0.3103448 0.6
vt 0.3275862 0.6
vt 0.3448276 0.6
vt 0.1896552 0.55
vt 0.2068966 0.55
vt 0.2241379 0.55
vt 0.2413793 0.55
vt 0.2586207 0.55
vt 0.2758621 0.55
vt 0.2931035 0.55
vt 0.3103448 0.55
vt 0.3275862 0.55
vt 0.3448276 0.55
vt 0.362069 0.85
vt 0.362069 0.9
vt 0.3793103 0.85
vt 0.3793103 0.9
vt 0.3965517 0.85
vt 0.3965517 0.9
vt 0.4137931 0.85
vt 0.4137931 0.9
vt 0.4310345 0.85
vt 0.4482759 0.85
vt 0.4482759 0.9
vt 0.4310345 0.9
vt 0.2758621 0.5
vt 0.2931035 0.5
vt 0.5 0.85
vt 0.5172414 0.85
vt 0.5172414 0.9
vt 0.5 0.9
vt 0.5344828 0.85
vt 0.5344828 0.9
vt 0.3275862 0.5
vt 0.3448276 0.5
vt 0.362069 0.8
vt 0.3793103 0.8
vt 0.3965517 0.8
vt 0.3793103 0.35
vt 0.3965517 0.35
vt 0.3965517 0.4
vt 0.3793103 0.4
vt 0.4310345 0.8
vt 0.4482759 0.8
vt 0.4655173 0.8
vt 0.4827586 0.8
vt 0.4827586 0.85
vt 0.4655173 0.85
vt 0.5 0.8
vt 0.5172414 0.8
vt 0.5344828 0.8
vt 0.362069 0.75
vt 0.3793103 0.75
vt 0.3965517 0.75
vt 0.4137931 0.75
vt 0.4137931 0.8
vt 0.4310345 0.75
vt 0.4482759 0.75
vt 0.4655173 0.75
vt 0.4827586 0.75
vt 0.5 0.75
vt 0.5172414 0.75
vt 0.5344828 0.75
vt 0.362069 0.7
vt 0.3793103 0.7
vt 0.3965517 0.7
vt 0.4137931 0.7
vt 0.4310345 0.7
vt 0.4482759 0.7
vt 0.1551724 0.2
vt 0.1724138 0.2
vt 0.1724138 0.25
vt 0.1551724 0.25
vt 0.1896552 0.2
vt 0.1896552 0.25
vt 0.5 0.7
vt 0.5172414 0.7
vt 0.5344828 0.7
vt 0.362069 0.65
vt 0.3793103 0.65
vt 0.3965517 0.65
vt 0.4137931 0.65
vt 0.4310345 0.65
vt 0.4482759 0.65
vt 0.1551724 0.15
vt 0.1724138 0.15
vt 0.1896552 0.15
vt 0.5 0.65
vt 0.5172414 0.65
vt 0.5344828 0.65
vt 0.362069 0.6
vt 0.3793103 0.6
vt 0.3965517 0.6
vt 0.4137931 0.6
vt 0.4310345 0.6
vt 0.4482759 0.6
vt 0.4655173 0.6
vt 0.4827586 0.6
vt 0.4827586 0.65
vt 0.4655173 0.65
vt 0.5 0.6
vt 0.5172414 0.6
vt 0.5344828 0.6
vt 0.362069 0.55
vt 0.3793103 0.55
vt 0.3965517 0.55
vt 0.4137931 0.55
vt 0.4310345 0.55
vt 0.4482759 0.55
vt 0.4655173 0.55
vt 0.4827586 0.55
vt 0.5 0.55
vt 0.5172414 0.55
vt 0.5344828 0.55
vt 0.03448276 0.9
vt 0.05172414 0.9
vt 0.05172414 0.95
vt 0.03448276 0.95
vt 0.06896552 0.9
vt 0.06896552 0.95
vt 0.0862069 0.9
vt 0.0862069 0.95
vt 0.1034483 0.9
vt 0.1034483 0.95
vt 0.1206897 0.9
vt 0.1206897 0.95
vt 0.137931 0.9
vt 0.137931 0.95
vt 0.1551724 0.9
vt 0.1551724 0.95
vt 0.03448276 0.85
vt 0.05172414 0.85
vt 0.06896552 0.85
vt 0.0862069 0.85
vt 0.1034483 0.85
vt 0.1206897 0.85
vt 0.137931 0.85
vt 0.1551724 0.85
vt 0.03448276 0.8
vt 0.05172414 0.8
vt 0.06896552 0.8
vt 0.0862069 0.8
vt 0.1034483 0.8
vt 0.1206897 0.8
vt 0.137931 0.8
vt 0.1551724 0.8
vt 0.03448276 0.75
vt 0.05172414 0.75
vt 0.06896552 0.75
vt 0.0862069 0.75
vt 0.1034483 0.75
vt 0.1206897 0.75
vt 0.137931 0.75
vt 0.1551724 0.75
vt 0.637931 0.85
vt 0.6551724 0.85
vt 0.6551724 0.9
vt 0.637931 0.9
vt 0.6724138 0.85
vt 0.6724138 0.9
vt 0.6896552 0.85
vt 0.6896552 0.9
vt 0.7068965 0.85
vt 0.7068965 0.9
vt 0.03448276 0.7
vt 0.05172414 0.7
vt 0.06896552 0.7
vt 0.0862069 0.7
vt 0.1034483 0.7
vt 0.1206897 0.7
vt 0.137931 0.7
vt 0.1551724 0.7
vt 0.637931 0.8
vt 0.6551724 0.8
vt 0.6724138 0.8
vt 0.6896552 0.8
vt 0.7068965 0.8
vt 0.03448276 0.65
vt 0.05172414 0.65
vt 0.06896552 0.65
vt 0.0862069 0.65
vt 0.1034483 0.65
vt 0.1206897 0.65
vt 0.137931 0.65
vt 0.1551724 0.65
vt 0.637931 0.75
vt 0.6551724 0.75
vt 0.6724138 0.75
vt 0.6896552 0.75
vt 0.7068965 0.75
vt 0.637931 0.7
vt 0.6551724 0.7
vt 0.6724138 0.7
vt 0.6896552 0.7
vt 0.7068965 0.7

# Normal
vn 0 0 -1

# Mesh description
g tutorialLevel_mesh_0001

# Faces
f 1/1/1 2/2/1 3/3/1 4/4/1
f 5/2/1 6/5/1 7/6/1 8/3/1
f 9/5/1 10/7/1 11/8/1 12/6/1
f 13/7/1 14/9/1 15/10/1 16/8/1
f 17/9/1 18/11/1 19/12/1 20/10/1
f 21/11/1 22/13/1 23/14/1 24/12/1
f 25/13/1 26/15/1 27/16/1 28/14/1
f 29/15/1 30/17/1 31/18/1 32/16/1
f 33/17/1 34/19/1 35/20/1 36/18/1
f 37/21/1 38/22/1 39/2/1 40/1/1
f 41/22/1 42/23/1 43/5/1 44/2/1
f 45/23/1 46/24/1 47/7/1 48/5/1
f 49/24/1 50/25/1 51/9/1 52/7/1
f 53/25/1 54/26/1 55/11/1 56/9/1
f 57/26/1 58/27/1 59/13/1 60/11/1
f 61/27/1 62/28/1 63/15/1 64/13/1
f 65/28/1 66/29/1 67/17/1 68/15/1
f 69/29/1 70/30/1 71/19/1 72/17/1
f 73/31/1 74/32/1 75/22/1 76/21/1
f 77/32/1 78/33/1 79/23/1 80/22/1
f 81/33/1 82/34/1 83/24/1 84/23/1
f 85/34/1 86/35/1 87/25/1 88/24/1
f 89/35/1 90/36/1 91/26/1 92/25/1
f 93/36/1 94/37/1 95/27/1 96/26/1
f 97/37/1 98/38/1 99/28/1 100/27/1
f 101/38/1 102/39/1 103/29/1 104/28/1
f 105/39/1 106/40/1 107/30/1 108/29/1
f 109/41/1 110/42/1 111/32/1 112/31/1
f 113/42/1 114/43/1 115/33/1 116/32/1
f 117/43/1 118/44/1 119/34/1 120/33/1
f 121/44/1 122/45/1 123/35/1 124/34/1
f 125/45/1 126/46/1 127/36/1 128/35/1
f 129/46/1 130/47/1 131/37/1 132/36/1
f 133/47/1 134/48/1 135/38/1 136/37/1
f 137/48/1 138/49/1 139/39/1 140/38/1
f 141/49/1 142/50/1 143/40/1 144/39/1
f 145/51/1 146/52/1 147/42/1 148/41/1
f 149/52/1 150/53/1 151/43/1 152/42/1
f 153/53/1 154/54/1 155/44/1 156/43/1
f 157/54/1 158/55/1 159/45/1 160/44/1
f 161/55/1 162/56/1 163/46/1 164/45/1
f 165/56/1 166/57/1 167/47/1 168/46/1
f 169/57/1 170/58/1 171/48/1 172/47/1
f 173/58/1 174/59/1 175/49/1 176/48/1
f 177/59/1 178/60/1 179/50/1 180/49/1
f 181/61/1 182/62/1 183/52/1 184/51/1
f 185/62/1 186/63/1 187/53/1 188/52/1
f 189/63/1 190/64/1 191/54/1 192/53/1
f 193/64/1 194/65/1 195/55/1 196/54/1
f 197/65/1 198/66/1 199/56/1 200/55/1
f 201/66/1 202/67/1 203/57/1 204/56/1
f 205/67/1 206/68/1 207/58/1 208/57/1
f 209/68/1 210/69/1 211/59/1 212/58/1
f 213/69/1 214/70/1 215/60/1 216/59/1
f 217/71/1 218/72/1 219/62/1 220/61/1
f 221/72/1 222/73/1 223/63/1 224/62/1
f 225/73/1 226/74/1 227/64/1 228/63/1
f 229/74/1 230/75/1 231/65/1 232/64/1
f 233/75/1 234/76/1 235/66/1 236/65/1
f 237/76/1 238/77/1 239/67/1 240/66/1
f 241/77/1 242/78/1 243/68/1 244/67/1
f 245/78/1 246/79/1 247/69/1 248/68/1
f 249/79/1 250/80/1 251/70/1 252/69/1
f 253/19/1 254/81/1 255/82/1 256/20/1
f 257/81/1 258/83/1 259/84/1 260/82/1
f 261/83/1 262/85/1 263/86/1 264/84/1
f 265/85/1 266/87/1 267/88/1 268/86/1
f 269/89/1 270/90/1 271/91/1 272/92/1
f 273/89/1 274/90/1 275/91/1 276/92/1
f 277/93/1 278/94/1 279/77/1 280/76/1
f 281/95/1 282/96/1 283/97/1 284/98/1
f 285/96/1 286/99/1 287/100/1 288/97/1
f 289/101/1 290/102/1 291/80/1 292/79/1
f 293/30/1 294/103/1 295/81/1 296/19/1
f 297/103/1 298/104/1 299/83/1 300/81/1
f 301/104/1 302/105/1 303/85/1 304/83/1
f 305/106/1 306/107/1 307/108/1 308/109/1
f 309/110/1 310/111/1 311/90/1 312/89/1
f 313/112/1 314/113/1 315/114/1 316/115/1
f 317/113/1 318/116/1 319/95/1 320/114/1
f 321/116/1 322/117/1 323/96/1 324/95/1
f 325/117/1 326/118/1 327/99/1 328/96/1
f 329/40/1 330/119/1 331/103/1 332/30/1
f 333/119/1 334/120/1 335/104/1 336/103/1
f 337/120/1 338/121/1 339/105/1 340/104/1
f 341/121/1 342/122/1 343/123/1 344/105/1
f 345/124/1 346/125/1 347/111/1 348/110/1
f 349/126/1 350/127/1 351/113/1 352/112/1
f 353/127/1 354/128/1 355/116/1 356/113/1
f 357/128/1 358/129/1 359/117/1 360/116/1
f 361/129/1 362/130/1 363/118/1 364/117/1
f 365/50/1 366/131/1 367/119/1 368/40/1
f 369/131/1 370/132/1 371/120/1 372/119/1
f 373/132/1 374/133/1 375/121/1 376/120/1
f 377/133/1 378/134/1 379/122/1 380/121/1
f 381/135/1 382/136/1 383/125/1 384/124/1
f 385/137/1 386/138/1 387/139/1 388/140/1
f 389/138/1 390/141/1 391/142/1 392/139/1
f 393/143/1 394/144/1 395/129/1 396/128/1
f 397/144/1 398/145/1 399/130/1 400/129/1
f 401/60/1 402/146/1 403/131/1 404/50/1
f 405/146/1 406/147/1 407/132/1 408/131/1
f 409/147/1 410/148/1 411/133/1 412/132/1
f 413/148/1 414/149/1 415/134/1 416/133/1
f 417/150/1 418/151/1 419/136/1 420/135/1
f 421/152/1 422/153/1 423/138/1 424/137/1
f 425/153/1 426/154/1 427/141/1 428/138/1
f 429/155/1 430/156/1 431/144/1 432/143/1
f 433/156/1 434/157/1 435/145/1 436/144/1
f 437/70/1 438/158/1 439/146/1 440/60/1
f 441/158/1 442/159/1 443/147/1 444/146/1
f 445/159/1 446/160/1 447/148/1 448/147/1
f 449/160/1 450/161/1 451/149/1 452/148/1
f 453/162/1 454/163/1 455/151/1 456/150/1
f 457/164/1 458/165/1 459/166/1 460/167/1
f 461/165/1 462/168/1 463/155/1 464/166/1
f 465/168/1 466/169/1 467/156/1 468/155/1
f 469/169/1 470/170/1 471/157/1 472/156/1
f 473/80/1 474/171/1 475/158/1 476/70/1
f 477/171/1 478/172/1 479/159/1 480/158/1
f 481/172/1 482/173/1 483/160/1 484/159/1
f 485/173/1 486/174/1 487/161/1 488/160/1
f 489/175/1 490/176/1 491/163/1 492/162/1
f 493/177/1 494/178/1 495/165/1 496/164/1
f 497/178/1 498/179/1 499/168/1 500/165/1
f 501/179/1 502/180/1 503/169/1 504/168/1
f 505/180/1 506/181/1 507/170/1 508/169/1
f 509/182/1 510/183/1 511/184/1 512/185/1
f 513/183/1 514/186/1 515/187/1 516/184/1
f 517/186/1 518/188/1 519/189/1 520/187/1
f 521/188/1 522/190/1 523/191/1 524/189/1
f 525/190/1 526/192/1 527/193/1 528/191/1
f 529/192/1 530/194/1 531/195/1 532/193/1
f 533/194/1 534/196/1 535/197/1 536/195/1
f 537/198/1 538/199/1 539/183/1 540/182/1
f 541/199/1 542/200/1 543/186/1 544/183/1
f 545/200/1 546/201/1 547/188/1 548/186/1
f 549/201/1 550/202/1 551/190/1 552/188/1
f 553/202/1 554/203/1 555/192/1 556/190/1
f 557/203/1 558/204/1 559/194/1 560/192/1
f 561/204/1 562/205/1 563/196/1 564/194/1
f 565/206/1 566/207/1 567/199/1 568/198/1
f 569/207/1 570/208/1 571/200/1 572/199/1
f 573/208/1 574/209/1 575/201/1 576/200/1
f 577/209/1 578/210/1 579/202/1 580/201/1
f 581/210/1 582/211/1 583/203/1 584/202/1
f 585/211/1 586/212/1 587/204/1 588/203/1
f 589/212/1 590/213/1 591/205/1 592/204/1
f 593/214/1 594/215/1 595/207/1 596/206/1
f 597/215/1 598/216/1 599/208/1 600/207/1
f 601/216/1 602/217/1 603/209/1 604/208/1
f 605/217/1 606/218/1 607/210/1 608/209/1
f 609/218/1 610/219/1 611/211/1 612/210/1
f 613/219/1 614/220/1 615/212/1 616/211/1
f 617/220/1 618/221/1 619/213/1 620/212/1
f 621/222/1 622/223/1 623/224/1 624/225/1
f 625/223/1 626/226/1 627/227/1 628/224/1
f 629/226/1 630/228/1 631/229/1 632/227/1
f 633/228/1 634/230/1 635/231/1 636/229/1
f 637/232/1 638/233/1 639/215/1 640/214/1
f 641/233/1 642/234/1 643/216/1 644/215/1
f 645/234/1 646/235/1 647/217/1 648/216/1
f 649/235/1 650/236/1 651/218/1 652/217/1
f 653/236/1 654/237/1 655/219/1 656/218/1
f 657/237/1 658/238/1 659/220/1 660/219/1
f 661/238/1 662/239/1 663/221/1 664/220/1
f 665/240/1 666/241/1 667/223/1 668/222/1
f 669/241/1 670/242/1 671/226/1 672/223/1
f 673/242/1 674/243/1 675/228/1 676/226/1
f 677/243/1 678/244/1 679/230/1 680/228/1
f 681/245/1 682/246/1 683/233/1 684/232/1
f 685/246/1 686/247/1 687/234/1 688/233/1
f 689/247/1 690/248/1 691/235/1 692/234/1
f 693/248/1 694/249/1 695/236/1 696/235/1
f 697/249/1 698/250/1 699/237/1 700/236/1
f 701/250/1 702/251/1 703/238/1 704/237/1
f 705/251/1 706/252/1 707/239/1 708/238/1
f 709/253/1 710/254/1 711/241/1 712/240/1
f 713/254/1 714/255/1 715/242/1 716/241/1
f 717/255/1 718/256/1 719/243/1 720/242/1
f 721/256/1 722/257/1 723/244/1 724/243/1
f 725/258/1 726/259/1 727/254/1 728/253/1
f 729/259/1 730/260/1 731/255/1 732/254/1
f 733/260/1 734/261/1 735/256/1 736/255/1
f 737/261/1 738/262/1 739/257/1 740/256/1

